<svg width="393" height="232" viewBox="0 0 393 232" fill="none" xmlns="http://www.w3.org/2000/svg">
<path fill-rule="evenodd" clip-rule="evenodd" d="M280.896 107.106H278.765C274.599 107.106 271.521 109.521 269.533 114.35L270.669 119.463C267.828 125.429 266.408 128.838 266.408 129.69C250.878 166.336 241.362 185.464 237.858 187.074V178.694C237.858 168.372 239.562 149.007 242.971 120.6C242.971 118.422 242.261 117.333 240.841 117.333H237.858C233.597 117.333 230.519 138.165 228.625 179.83C229.383 190.057 231.087 195.17 233.739 195.17H240.841C246.333 195.17 258.596 172.018 277.629 125.713C281.227 127.702 284.636 128.696 287.856 128.696H291.975C292.437 128.598 292.882 128.498 293.31 128.395C291.094 134.557 289.986 138.919 289.986 141.479C289.986 145.551 292.07 147.587 296.236 147.587H299.361C306.813 145.345 314.381 141.457 322.065 135.92C294.923 192.832 280.774 224.135 279.617 229.828C279.617 231.248 280.233 231.958 281.464 231.958H286.577C304.096 194.649 318.441 167.378 329.615 150.144H344.955L355.182 149.149C361.716 147.445 374.026 139.964 392.112 126.707V121.594H385.863C371.659 132.389 364.131 137.786 363.278 137.786H362.426V136.934H363.278C370.096 129.832 373.505 124.387 373.505 120.6V115.486C373.505 113.308 370.475 111.604 364.415 110.373H363.278C356.366 110.373 347.559 115.818 336.859 126.707C343.677 113.924 347.086 106.774 347.086 105.259V104.123C346.423 104.123 345.382 103.792 343.961 103.129H342.825C339.897 103.129 335.224 109.405 328.805 121.957C318.398 129.751 308.867 135.879 300.213 140.343V135.23C307.031 119.037 310.44 109.899 310.44 107.816V106.68C309.493 104.691 308.499 103.697 307.457 103.697H303.48L300.213 105.686C300.213 106.348 300.592 107.39 301.349 108.81C299.427 113.137 297.748 117.066 296.313 120.6H295.1L289.986 123.582C288.471 123.582 285.725 122.209 281.748 119.463C281.748 116.623 282.079 113.214 282.742 109.236C282.742 108.1 282.127 107.39 280.896 107.106ZM357.313 131.821C357.313 135.514 349.453 139.585 333.734 144.036C346.234 126.802 356.082 117.617 363.278 116.48L365.409 117.333C365.409 121.31 362.71 126.139 357.313 131.821Z" fill="#111111"/>
<circle cx="194" cy="153" r="8" fill="#DE5783"/>
<path fill-rule="evenodd" clip-rule="evenodd" d="M334.16 56.682H327.911C320.43 60.375 316.69 62.695 316.69 63.6419C316.69 65.0623 317.4 65.7725 318.82 65.7725H321.803C323.508 65.7725 327.627 64.7783 334.16 62.7897V56.682Z" fill="#7FDDEF"/>
<path fill-rule="evenodd" clip-rule="evenodd" d="M54.6169 40.9966C43.5749 41.7422 41.0659 41.9117 34.7953 36.8175L18.8492 24.1613C17.2228 22.5246 18.0385 20.4831 22.1217 20.0782L134.087 11.9118C143.483 11.0935 148.385 14.3651 152.064 17.2216L171.268 31.1044C172.086 31.511 174.125 33.9576 171.673 33.9576L56.0424 40.9008C55.5518 40.9335 55.077 40.9656 54.6169 40.9966ZM41.7376 185.428V63.7649C41.7376 58.4583 43.3722 56.0068 48.2728 55.595L181.07 47.8404C185.574 47.4321 187.614 50.292 187.614 55.595V136.166C189.599 135.412 191.751 135 194 135C196.68 135 199.222 135.586 201.508 136.636V43.3472C201.508 38.7045 199.671 37.3634 194.255 33.4099C193.957 33.1924 193.649 32.9669 193.329 32.7326L156.153 6.60367C147.164 0.0739369 143.484 -0.747719 129.183 0.478907L12.7209 9.05525C3.33004 9.86854 0.057394 15.995 0.057394 23.3397V150.721C0.057394 156.445 2.09735 161.336 7.00297 167.874L34.38 203.394C38.8768 209.114 42.9636 210.337 51.5504 209.928L186.797 201.761C198.236 200.948 201.508 195.637 201.508 186.655V169.364C199.222 170.414 196.68 171 194 171C191.751 171 189.599 170.588 187.614 169.834V176.442C187.614 181.753 186.795 186.251 179.437 186.655L52.3594 194.008C45.0051 194.413 41.7376 191.967 41.7376 185.428ZM163.504 78.0576C167.188 77.6443 168.003 73.9695 167.188 70.2912L138.986 71.9328C134.899 72.3377 131.635 75.6027 132.45 80.0993L143.077 81.319V137.664L101.397 73.971L71.1579 76.0093C65.4332 76.421 63.3933 81.7241 64.2122 85.4023L74.4254 86.2207V166.652L67.0696 168.691C64.2105 169.509 63.3916 173.588 64.2105 175.223L92.3983 173.588C102.623 173.588 102.623 166.243 102.623 166.243L89.9496 163.383V102.55L130 165.424C134.899 171.545 136.537 173.588 143.077 173.588C147.162 173.588 152.064 171.954 157.38 169.097V79.2775L163.504 78.0576Z" fill="#111111"/>
</svg>
