<svg width="93" height="20" viewBox="0 0 93 20" fill="none" xmlns="http://www.w3.org/2000/svg">
<path d="M10.4978 14.4584L9.62726 14.5912V5.04493H12.0618V16.1109H8.88952L1.80728 6.56466L2.66305 6.43187V16.1109H0.243287V5.04493H3.48931L10.4978 14.4584ZM17.4216 16.3323C16.6446 16.3323 15.9806 16.1749 15.4298 15.8601C14.8888 15.5355 14.4707 15.0781 14.1756 14.4879C13.8904 13.8977 13.7477 13.1993 13.7477 12.3928V7.71553H16.2118V12.0239C16.2118 12.7715 16.3888 13.342 16.7429 13.7354C17.097 14.1191 17.5987 14.3109 18.2479 14.3109C18.7299 14.3109 19.1381 14.2125 19.4725 14.0158C19.8168 13.8092 20.0824 13.5141 20.2693 13.1305C20.4562 12.7469 20.5496 12.2993 20.5496 11.7878L21.3464 12.2157C21.248 13.0813 21.0169 13.824 20.6529 14.4437C20.289 15.0535 19.8266 15.5207 19.266 15.8453C18.7151 16.17 18.1004 16.3323 17.4216 16.3323ZM21.066 16.1109L20.5496 12.9239V7.71553H23.0137V13.2928L23.5301 16.1109H21.066ZM23.9717 9.57461V8.48277L25.7275 7.90734L26.7751 5.50233H28.1915V7.71553H31.9097V9.57461H28.1915V12.5846C28.1915 13.2633 28.3243 13.7354 28.5899 14.001C28.8653 14.2666 29.3375 14.3994 30.0063 14.3994C30.4293 14.3994 30.8031 14.36 31.1277 14.2814C31.4523 14.1928 31.7621 14.0748 32.0572 13.9272V15.8453C31.772 15.9634 31.3933 16.0716 30.9211 16.17C30.449 16.2782 29.9571 16.3323 29.4457 16.3323C28.58 16.3323 27.8718 16.1945 27.321 15.9191C26.78 15.6339 26.3767 15.2404 26.1111 14.7387C25.8554 14.2371 25.7275 13.6518 25.7275 12.9829V9.57461H23.9717ZM31.408 9.57461V7.71553H34.2409L32.7064 8.86639L34.2114 5.50233H35.6279V7.71553H39.346V9.57461H35.6279V12.5846C35.6279 13.2633 35.7606 13.7354 36.0262 14.001C36.3017 14.2666 36.7787 14.3994 37.4574 14.3994C37.8804 14.3994 38.2542 14.3551 38.5788 14.2666C38.9034 14.1781 39.2083 14.065 39.4936 13.9272V15.8453C39.1985 15.9732 38.8149 16.0863 38.3427 16.1847C37.8706 16.2831 37.3837 16.3323 36.882 16.3323C36.0164 16.3323 35.3082 16.1945 34.7573 15.9191C34.2163 15.6339 33.813 15.2404 33.5474 14.7387C33.2917 14.2371 33.1638 13.6518 33.1638 12.9829V9.57461H31.408ZM47.0017 5.04493V15.0043L45.8656 13.8977H54.1725V16.1109H44.4935V5.04493H47.0017ZM62.6332 16.1109L62.279 13.042L62.6774 11.9206L62.279 10.814L62.6332 7.71553H65.1857L64.6988 11.9206L65.1857 16.1109H62.6332ZM63.2824 11.9206C63.125 12.8059 62.8348 13.583 62.4118 14.2518C61.9987 14.9109 61.4725 15.4224 60.8331 15.7863C60.2036 16.1503 59.4953 16.3323 58.7084 16.3323C57.892 16.3323 57.169 16.1503 56.5395 15.7863C55.9099 15.4125 55.4181 14.8961 55.064 14.2371C54.7197 13.5682 54.5476 12.796 54.5476 11.9206C54.5476 11.0353 54.7197 10.2632 55.064 9.60412C55.4181 8.93525 55.9099 8.41883 56.5395 8.05488C57.169 7.6811 57.892 7.49421 58.7084 7.49421C59.4953 7.49421 60.2036 7.67618 60.8331 8.04013C61.4725 8.40408 62.0036 8.92049 62.4266 9.58937C62.8496 10.2484 63.1348 11.0255 63.2824 11.9206ZM57.0411 11.9206C57.0411 12.4124 57.1395 12.8452 57.3362 13.219C57.5428 13.5928 57.8231 13.8879 58.1772 14.1043C58.5314 14.3109 58.9396 14.4141 59.4019 14.4141C59.8642 14.4141 60.297 14.3109 60.7003 14.1043C61.1134 13.8879 61.4774 13.5928 61.7921 13.219C62.1069 12.8452 62.3528 12.4124 62.5299 11.9206C62.3528 11.4288 62.1069 10.996 61.7921 10.6222C61.4774 10.2386 61.1134 9.94348 60.7003 9.73692C60.297 9.52051 59.8642 9.41231 59.4019 9.41231C58.9396 9.41231 58.5314 9.52051 58.1772 9.73692C57.8231 9.94348 57.5428 10.2386 57.3362 10.6222C57.1395 10.996 57.0411 11.4288 57.0411 11.9206ZM66.6857 4.74984H69.1498V10.3861L68.8104 11.0501V12.8797L69.1498 13.5584V16.1109H66.6857V4.74984ZM68.2792 11.9206C68.4366 11.0255 68.7268 10.2484 69.1498 9.58937C69.5727 8.92049 70.099 8.40408 70.7285 8.04013C71.358 7.67618 72.0663 7.49421 72.8532 7.49421C73.6696 7.49421 74.3926 7.6811 75.0221 8.05488C75.6517 8.41883 76.1435 8.93525 76.4976 9.60412C76.8517 10.2632 77.0288 11.0353 77.0288 11.9206C77.0288 12.796 76.8517 13.5682 76.4976 14.2371C76.1435 14.8961 75.6517 15.4125 75.0221 15.7863C74.3926 16.1503 73.6696 16.3323 72.8532 16.3323C72.0663 16.3323 71.358 16.1503 70.7285 15.7863C70.099 15.4224 69.5727 14.9109 69.1498 14.2518C68.7366 13.583 68.4465 12.8059 68.2792 11.9206ZM74.5205 11.9206C74.5205 11.4288 74.4172 10.996 74.2106 10.6222C74.0139 10.2386 73.7385 9.94348 73.3843 9.73692C73.0302 9.52051 72.6269 9.41231 72.1745 9.41231C71.7122 9.41231 71.2744 9.52051 70.8613 9.73692C70.4482 9.94348 70.0842 10.2386 69.7695 10.6222C69.4645 10.996 69.2235 11.4288 69.0465 11.9206C69.2235 12.4124 69.4645 12.8452 69.7695 13.219C70.0842 13.5928 70.4482 13.8879 70.8613 14.1043C71.2744 14.3109 71.7122 14.4141 72.1745 14.4141C72.6269 14.4141 73.0302 14.3109 73.3843 14.1043C73.7385 13.8879 74.0139 13.5928 74.2106 13.219C74.4172 12.8452 74.5205 12.4124 74.5205 11.9206ZM87.5168 13.4698C87.5168 14.0699 87.3397 14.5863 86.9856 15.0191C86.6413 15.4519 86.1249 15.7814 85.4364 16.0076C84.7478 16.2241 83.9068 16.3323 82.9133 16.3323C81.8903 16.3323 81.0001 16.2093 80.2427 15.9634C79.4853 15.7076 78.8951 15.3486 78.4722 14.8863C78.0492 14.424 77.823 13.8879 77.7935 13.278H80.3018C80.3608 13.5535 80.5083 13.7944 80.7444 14.001C80.9805 14.1977 81.2854 14.3502 81.6592 14.4584C82.0428 14.5666 82.4854 14.6207 82.9871 14.6207C83.6855 14.6207 84.2117 14.542 84.5659 14.3846C84.9298 14.2273 85.1118 13.9912 85.1118 13.6764C85.1118 13.4502 84.9839 13.278 84.7282 13.16C84.4822 13.042 84.0249 12.9534 83.356 12.8944L81.792 12.7764C80.8575 12.6977 80.1149 12.5403 79.564 12.3042C79.0132 12.0682 78.6197 11.7731 78.3837 11.4189C78.1574 11.055 78.0443 10.6566 78.0443 10.2238C78.0443 9.6238 78.2312 9.12214 78.605 8.71884C78.9788 8.31555 79.5001 8.01062 80.169 7.80405C80.8477 7.59749 81.6297 7.49421 82.515 7.49421C83.4199 7.49421 84.2265 7.61716 84.9347 7.86307C85.6429 8.10898 86.2085 8.44834 86.6315 8.88115C87.0643 9.31395 87.3102 9.81561 87.3692 10.3861H84.8609C84.8216 10.1796 84.7085 9.98775 84.5216 9.81069C84.3445 9.6238 84.0839 9.47133 83.7396 9.35329C83.3953 9.23526 82.9478 9.17624 82.3969 9.17624C81.7772 9.17624 81.3002 9.25001 80.9657 9.39756C80.6313 9.53527 80.4641 9.74675 80.4641 10.032C80.4641 10.2287 80.5673 10.391 80.7739 10.5189C80.9805 10.637 81.3641 10.7206 81.9248 10.7697L83.9609 10.932C84.8659 11.0107 85.579 11.1632 86.1003 11.3894C86.6217 11.6058 86.9856 11.8911 87.1922 12.2452C87.4086 12.5993 87.5168 13.0075 87.5168 13.4698Z" fill="white"/>
<path d="M87.7336 5.01826C88.4392 4.84125 88.8679 4.12578 88.6912 3.42021C88.5145 2.71465 87.7992 2.28617 87.0936 2.46318C86.388 2.64019 85.9592 3.35566 86.136 4.06122C86.3127 4.76679 87.028 5.19527 87.7336 5.01826Z" fill="white"/>
<path d="M91.0663 6.76116C91.6308 6.61966 91.9737 6.04736 91.8322 5.48289C91.6907 4.91842 91.1184 4.57553 90.5539 4.71702C89.9894 4.85852 89.6466 5.43082 89.7881 5.99529C89.9295 6.55976 90.5018 6.90265 91.0663 6.76116Z" fill="white"/>
<path d="M91.5529 3.114C92.3996 2.90176 92.9139 2.04331 92.7017 1.19661C92.4894 0.349899 91.631 -0.164436 90.7843 0.0478067C89.9376 0.260049 89.4232 1.1185 89.6355 1.9652C89.8477 2.81191 90.7062 3.32625 91.5529 3.114Z" fill="white"/>
</svg>
