<svg width="320" height="68" viewBox="0 0 320 68" fill="none" xmlns="http://www.w3.org/2000/svg">
<path d="M39.6406 49.1316L36.6375 49.5897V16.658H45.0359V54.8323H34.0926L9.66095 21.9006L12.6131 21.4425V54.8323H4.26564V16.658H15.4635L39.6406 49.1316ZM63.5258 55.5958C60.8451 55.5958 58.5546 55.0529 56.6544 53.9671C54.7881 52.8473 53.346 51.2694 52.328 49.2334C51.3439 47.1975 50.8519 44.7882 50.8519 42.0057V25.8707H59.3521V40.7333C59.3521 43.3122 59.9629 45.2803 61.1844 46.6376C62.406 47.9609 64.1366 48.6226 66.3762 48.6226C68.0389 48.6226 69.4471 48.2833 70.6008 47.6047C71.7884 46.8921 72.7046 45.8741 73.3493 44.5507C73.9941 43.2273 74.3164 41.6834 74.3164 39.9189L77.065 41.395C76.7257 44.381 75.9282 46.943 74.6727 49.0807C73.4172 51.1846 71.8224 52.7964 69.8882 53.9162C67.988 55.0359 65.8672 55.5958 63.5258 55.5958ZM76.0979 54.8323L74.3164 43.8381V25.8707H82.8166V45.1106L84.5981 54.8323H76.0979ZM86.1215 32.284V28.5175L92.1785 26.5324L95.7923 18.2358H100.679V25.8707H113.505V32.284H100.679V42.6674C100.679 45.0088 101.137 46.6376 102.053 47.5538C103.003 48.4699 104.632 48.928 106.939 48.928C108.398 48.928 109.688 48.7923 110.808 48.5208C111.927 48.2154 112.996 47.8083 114.014 47.2993V53.9162C113.03 54.3233 111.724 54.6966 110.095 55.0359C108.466 55.4092 106.77 55.5958 105.005 55.5958C102.019 55.5958 99.5758 55.1208 97.6756 54.1706C95.8093 53.1866 94.418 51.8293 93.5018 50.0987C92.6196 48.3681 92.1785 46.3491 92.1785 44.0417V32.284H86.1215ZM111.775 32.284V25.8707H121.547L116.254 29.8408L121.445 18.2358H126.332V25.8707H139.158V32.284H126.332V42.6674C126.332 45.0088 126.79 46.6376 127.706 47.5538C128.656 48.4699 130.302 48.928 132.643 48.928C134.102 48.928 135.392 48.7753 136.512 48.4699C137.631 48.1645 138.683 47.7743 139.667 47.2993V53.9162C138.649 54.3573 137.326 54.7475 135.697 55.0868C134.068 55.4262 132.389 55.5958 130.658 55.5958C127.672 55.5958 125.229 55.1208 123.329 54.1706C121.462 53.1866 120.071 51.8293 119.155 50.0987C118.273 48.3681 117.832 46.3491 117.832 44.0417V32.284H111.775ZM165.568 16.658V51.0149L161.649 47.1975H190.305V54.8323H156.915V16.658H165.568ZM219.492 54.8323L218.27 44.2453L219.645 40.377L218.27 36.5595L219.492 25.8707H228.298L226.618 40.377L228.298 54.8323H219.492ZM221.732 40.377C221.189 43.4309 220.188 46.1116 218.729 48.419C217.303 50.6925 215.488 52.457 213.282 53.7126C211.111 54.9681 208.667 55.5958 205.953 55.5958C203.136 55.5958 200.642 54.9681 198.471 53.7126C196.299 52.4231 194.602 50.6416 193.381 48.3681C192.193 46.0607 191.599 43.397 191.599 40.377C191.599 37.323 192.193 34.6593 193.381 32.3858C194.602 30.0784 196.299 28.2969 198.471 27.0414C200.642 25.7519 203.136 25.1072 205.953 25.1072C208.667 25.1072 211.111 25.735 213.282 26.9905C215.488 28.246 217.32 30.0275 218.779 32.3349C220.239 34.6084 221.223 37.2891 221.732 40.377ZM200.201 40.377C200.201 42.0736 200.541 43.5667 201.219 44.8561C201.932 46.1455 202.899 47.1635 204.12 47.91C205.342 48.6226 206.75 48.9789 208.345 48.9789C209.94 48.9789 211.433 48.6226 212.824 47.91C214.249 47.1635 215.505 46.1455 216.591 44.8561C217.677 43.5667 218.525 42.0736 219.136 40.377C218.525 38.6803 217.677 37.1873 216.591 35.8978C215.505 34.5745 214.249 33.5565 212.824 32.8439C211.433 32.0974 209.94 31.7241 208.345 31.7241C206.75 31.7241 205.342 32.0974 204.12 32.8439C202.899 33.5565 201.932 34.5745 201.219 35.8978C200.541 37.1873 200.201 38.6803 200.201 40.377ZM233.472 15.64H241.972V35.0835L240.802 37.3739V43.6854L241.972 46.0268V54.8323H233.472V15.64ZM238.969 40.377C239.512 37.2891 240.513 34.6084 241.972 32.3349C243.431 30.0275 245.247 28.246 247.419 26.9905C249.59 25.735 252.033 25.1072 254.748 25.1072C257.564 25.1072 260.059 25.7519 262.23 27.0414C264.402 28.2969 266.099 30.0784 267.32 32.3858C268.542 34.6593 269.152 37.323 269.152 40.377C269.152 43.397 268.542 46.0607 267.32 48.3681C266.099 50.6416 264.402 52.4231 262.23 53.7126C260.059 54.9681 257.564 55.5958 254.748 55.5958C252.033 55.5958 249.59 54.9681 247.419 53.7126C245.247 52.457 243.431 50.6925 241.972 48.419C240.547 46.1116 239.546 43.4309 238.969 40.377ZM260.5 40.377C260.5 38.6803 260.143 37.1873 259.431 35.8978C258.752 34.5745 257.802 33.5565 256.58 32.8439C255.359 32.0974 253.968 31.7241 252.407 31.7241C250.812 31.7241 249.302 32.0974 247.877 32.8439C246.451 33.5565 245.196 34.5745 244.11 35.8978C243.058 37.1873 242.227 38.6803 241.616 40.377C242.227 42.0736 243.058 43.5667 244.11 44.8561C245.196 46.1455 246.451 47.1635 247.877 47.91C249.302 48.6226 250.812 48.9789 252.407 48.9789C253.968 48.9789 255.359 48.6226 256.58 47.91C257.802 47.1635 258.752 46.1455 259.431 44.8561C260.143 43.5667 260.5 42.0736 260.5 40.377ZM305.333 45.7214C305.333 47.7913 304.722 49.5728 303.501 51.0658C302.313 52.5588 300.532 53.6956 298.156 54.476C295.781 55.2226 292.88 55.5958 289.453 55.5958C285.924 55.5958 282.853 55.1717 280.24 54.3233C277.627 53.4411 275.591 52.2025 274.132 50.6077C272.673 49.0129 271.892 47.1635 271.791 45.0597H280.443C280.647 46.0098 281.156 46.8412 281.97 47.5538C282.785 48.2324 283.837 48.7584 285.126 49.1316C286.449 49.5049 287.976 49.6915 289.707 49.6915C292.116 49.6915 293.932 49.4201 295.153 48.8771C296.409 48.3342 297.036 47.5198 297.036 46.434C297.036 45.6535 296.595 45.0597 295.713 44.6525C294.865 44.2453 293.287 43.9399 290.979 43.7363L285.584 43.3291C282.361 43.0577 279.799 42.5147 277.898 41.7003C275.998 40.886 274.641 39.868 273.826 38.6464C273.046 37.3909 272.656 36.0166 272.656 34.5236C272.656 32.4537 273.301 30.7231 274.59 29.3318C275.879 27.9406 277.678 26.8887 279.985 26.1761C282.327 25.4635 285.024 25.1072 288.078 25.1072C291.2 25.1072 293.983 25.5314 296.426 26.3797C298.869 27.228 300.82 28.3987 302.279 29.8917C303.772 31.3848 304.62 33.1154 304.824 35.0835H296.171C296.035 34.3709 295.645 33.7092 295.001 33.0984C294.39 32.4537 293.491 31.9277 292.303 31.5205C291.115 31.1133 289.571 30.9097 287.671 30.9097C285.533 30.9097 283.888 31.1642 282.734 31.6732C281.58 32.1483 281.003 32.8778 281.003 33.8619C281.003 34.5405 281.36 35.1004 282.072 35.5415C282.785 35.9487 284.108 36.2372 286.042 36.4068L293.066 36.9667C296.188 37.2382 298.648 37.7641 300.447 38.5446C302.245 39.2911 303.501 40.2752 304.213 41.4968C304.96 42.7183 305.333 44.1265 305.333 45.7214Z" fill="#010101"/>
<path d="M302.655 17.3115C305.089 16.7008 306.568 14.2327 305.958 11.7987C305.348 9.36473 302.881 7.88661 300.447 8.49725C298.013 9.10788 296.534 11.576 297.143 14.01C297.753 16.444 300.22 17.9221 302.655 17.3115Z" fill="url(#paint0_linear_958_12)"/>
<path d="M314.151 23.324C316.099 22.8358 317.282 20.8616 316.793 18.9143C316.305 16.9671 314.331 15.7842 312.384 16.2723C310.437 16.7604 309.254 18.7347 309.742 20.682C310.23 22.6292 312.204 23.8121 314.151 23.324Z" fill="url(#paint1_linear_958_12)"/>
<path d="M315.83 10.7424C318.751 10.0102 320.525 7.04882 319.793 4.12793C319.061 1.20705 316.099 -0.567254 313.178 0.164919C310.258 0.897092 308.483 3.85848 309.215 6.77937C309.948 9.70025 312.909 11.4746 315.83 10.7424Z" fill="url(#paint2_linear_958_12)"/>
<defs>
<linearGradient id="paint0_linear_958_12" x1="320.016" y1="-5.73161e-05" x2="306.17" y2="10.6882" gradientUnits="userSpaceOnUse">
<stop stop-color="#D3FFA5"/>
<stop offset="1" stop-color="#00E2A9"/>
</linearGradient>
<linearGradient id="paint1_linear_958_12" x1="320.016" y1="-5.73161e-05" x2="306.17" y2="10.6882" gradientUnits="userSpaceOnUse">
<stop stop-color="#D3FFA5"/>
<stop offset="1" stop-color="#00E2A9"/>
</linearGradient>
<linearGradient id="paint2_linear_958_12" x1="320.016" y1="-5.73161e-05" x2="306.17" y2="10.6882" gradientUnits="userSpaceOnUse">
<stop stop-color="#D3FFA5"/>
<stop offset="1" stop-color="#00E2A9"/>
</linearGradient>
</defs>
</svg>
