<svg width="99" height="88" viewBox="0 0 99 88" fill="none" xmlns="http://www.w3.org/2000/svg">
<path d="M97.0005 10.7015C95.6997 8.99843 93.895 7.89683 91.7896 7.69373L73.2546 5.08823L37.4816 0.0765269C33.173 -0.525033 29.1652 2.48273 28.4621 6.88903L28.1613 8.89293L18.0403 9.19371C13.7317 9.39293 10.427 12.9007 10.427 17.1078L6.52082 17.8109C2.21222 18.5141 -0.59248 22.5218 0.10672 26.9281L9.52472 81.0371C10.1263 84.9433 13.4309 87.5488 17.3411 87.5488C17.7435 87.5488 18.2435 87.5488 18.7434 87.4473L70.7474 78.3301L75.1576 78.2285C76.4584 78.1269 77.7631 77.7285 78.7631 77.1269L81.9701 77.5292C82.3725 77.6308 82.7709 77.6308 83.1732 77.6308C84.7748 77.6308 86.3802 77.1308 87.7826 76.1269C89.4857 74.8261 90.6888 72.9199 90.9896 70.8144L98.6029 16.5054C98.8021 14.5054 98.3021 12.4038 97.0013 10.7007L97.0005 10.7015ZM36.2775 2.48273C36.5783 2.48273 36.7775 2.48273 37.0783 2.58429L71.6483 7.39289L68.3397 30.7409V30.8424V30.944L62.5272 72.428L27.9572 67.6194C26.5549 67.4202 25.2502 66.7171 24.3517 65.5139C23.4493 64.3108 23.1486 62.9084 23.2501 61.5061L30.8634 7.19711C31.3673 4.38851 33.5704 2.48273 36.2775 2.48273ZM18.0395 11.6038L27.7583 11.303L20.7427 61.002C20.4419 63.1075 21.0435 65.209 22.2466 66.9122C23.5474 68.6153 25.3521 69.7169 27.4575 69.92L69.4415 75.8302L20.2465 77.3341C17.2387 77.4357 14.7348 75.131 14.6371 72.1232L12.934 17.2132C12.8324 14.2054 15.0356 11.803 18.0395 11.6038ZM18.2426 85.0488C15.2348 85.5488 12.4301 83.6465 11.9301 80.6386L2.51212 26.5296C2.01212 23.5218 3.91442 20.7171 6.92232 20.2171L10.4301 19.6156L12.0317 72.3226C12.2309 76.6312 15.7387 79.9359 20.0473 79.9359H20.2465L53.1135 78.932L18.2426 85.0488ZM88.4806 70.5218C88.2814 72.0257 87.4767 73.3265 86.2775 74.1273C85.0744 75.0297 83.672 75.3304 82.2697 75.1312L64.9337 72.725L70.6446 32.444L93.3906 35.651L88.4806 70.5218ZM96.0978 16.2098L93.6916 33.1438L70.9456 29.9368L74.0511 7.69083L91.3871 10.101C92.7894 10.3002 94.0941 11.0034 94.9926 12.2065C95.8989 13.4057 96.297 14.8075 96.0978 16.2098Z" fill="url(#paint0_linear_1602_19)"/>
<defs>
<linearGradient id="paint0_linear_1602_19" x1="49.3226" y1="0" x2="49.3226" y2="87.5488" gradientUnits="userSpaceOnUse">
<stop stop-color="#FE323E"/>
<stop offset="1" stop-color="#BB1E51"/>
</linearGradient>
</defs>
</svg>
