<svg width="155" height="76" viewBox="0 0 155 76" fill="none" xmlns="http://www.w3.org/2000/svg">
<path d="M6.62109 37.0368C7.33049 37.0565 7.68519 37.1846 7.68519 37.421C7.68519 38.4851 7.33049 40.4853 6.62109 43.4214V43.6283H6.828C8.04975 40.9089 8.96606 39.5492 9.57694 39.5492H10.2568C10.7888 40.2586 11.2027 40.6133 11.4982 40.6133C11.5771 40.6133 12.4343 40.3375 14.0698 39.7857L14.8975 39.9926V40.8498C13.991 41.5789 12.9466 42.0223 11.7643 42.1799L9.84296 41.9435C8.60151 44.4855 7.37976 45.7565 6.17771 45.7565H5.32052C5.12346 45.7565 4.91655 45.5398 4.69979 45.1062V43.8057L4.93626 42.5642V42.3573H4.69979C3.63568 45.1949 2.57158 46.6137 1.50747 46.6137H0.857186C0.581307 46.5152 0.295575 46.1605 -9.80496e-06 45.5496C0.709394 40.9976 1.4188 38.7216 2.1282 38.7216H2.80805C3.06422 38.7216 3.19231 38.9384 3.19231 39.3719C3.19231 39.766 2.9854 40.7611 2.57158 42.3573V42.5642H2.80805C4.24656 38.8793 5.51757 37.0368 6.62109 37.0368ZM19.8787 26.6617H21.1792V27.9328C19.8195 28.3466 18.9623 28.5535 18.6076 28.5535H17.9869C17.6913 28.5535 17.5435 28.4057 17.5435 28.1101C17.5435 27.9131 18.3219 27.4303 19.8787 26.6617ZM14.7946 36.4456H15.6222C15.839 36.4456 16.0459 36.6525 16.243 37.0663V37.3028C16.243 37.7363 15.5336 39.6379 14.1148 43.0076V44.0717C15.9868 43.1061 18.0559 41.7661 20.322 40.0517H20.4994C20.7753 40.1897 21.0708 40.2586 21.3861 40.2586V40.8794C18.8441 43.2835 16.3612 44.8501 13.9374 45.5792H13.2871C12.4201 45.5792 11.9865 45.1555 11.9865 44.3082C11.9865 43.3229 12.7748 41.0567 14.3512 37.5097C14.1936 37.2141 14.1148 36.9974 14.1148 36.8594L14.7946 36.4456ZM37.9838 6.25104e-06H38.4272C38.841 6.25104e-06 39.0479 0.285738 39.0479 0.857202C38.3385 2.946 36.8409 5.70479 34.555 9.13357C34.555 9.46857 33.284 12.3062 30.742 17.6464C23.3524 33.943 19.5984 43.6677 19.4802 46.8206C19.5984 47.0965 19.6576 47.3034 19.6576 47.4414H19.894C20.6231 47.4414 23.0272 45.0373 27.1063 40.2291C27.3822 40.0714 27.6778 39.9926 27.993 39.9926H28.1704C28.466 40.032 28.6138 40.1798 28.6138 40.436V40.8498C24.9288 46.1112 21.8153 48.7419 19.2733 48.7419C18.2683 48.7419 17.7658 48.2394 17.7658 47.2344V46.3772C17.7658 42.5149 24.1504 27.115 36.9197 0.177357L37.9838 6.25104e-06ZM44.8863 6.25104e-06H45.3297C45.7435 6.25104e-06 45.9504 0.285738 45.9504 0.857202C45.241 2.946 43.7434 5.70479 41.4575 9.13357C41.4575 9.46857 40.1865 12.3062 37.6445 17.6464C30.2549 33.943 26.5009 43.6677 26.3827 46.8206C26.5009 47.0965 26.5601 47.3034 26.5601 47.4414H26.7965C27.5256 47.4414 29.9297 45.0373 34.0088 40.2291C34.2847 40.0714 34.5802 39.9926 34.8955 39.9926H35.0729C35.3685 40.032 35.5163 40.1798 35.5163 40.436V40.8498C31.8313 46.1112 28.7178 48.7419 26.1758 48.7419C25.1708 48.7419 24.6683 48.2394 24.6683 47.2344V46.3772C24.6683 42.5149 31.0529 27.115 43.8222 0.177357L44.8863 6.25104e-06ZM40.2314 26.6617H41.532V27.9328C40.1723 28.3466 39.3151 28.5535 38.9604 28.5535H38.3397C38.0441 28.5535 37.8963 28.4057 37.8963 28.1101C37.8963 27.9131 38.6747 27.4303 40.2314 26.6617ZM35.1474 36.4456H35.975C36.1918 36.4456 36.3987 36.6525 36.5957 37.0663V37.3028C36.5957 37.7363 35.8863 39.6379 34.4675 43.0076V44.0717C36.3396 43.1061 38.4087 41.7661 40.6748 40.0517H40.8522C41.128 40.1897 41.4236 40.2586 41.7389 40.2586V40.8794C39.1969 43.2835 36.714 44.8501 34.2902 45.5792H33.6399C32.7728 45.5792 32.3393 45.1555 32.3393 44.3082C32.3393 43.3229 33.1276 41.0567 34.704 37.5097C34.5464 37.2141 34.4675 36.9974 34.4675 36.8594L35.1474 36.4456ZM46.0698 38.0418H46.6906C46.9073 38.0418 47.1142 38.2487 47.3113 38.6625C46.3457 40.5936 45.5772 42.2982 45.0057 43.7761H45.1831C47.6463 41.2341 49.2129 39.9631 49.8829 39.9631C50.1785 40.101 50.3854 40.17 50.5036 40.17V40.7907C47.666 43.9239 45.6856 45.4905 44.5623 45.4905H44.119C43.2913 45.4905 42.8775 45.1358 42.8775 44.4264C42.9957 44.1308 43.0549 43.914 43.0549 43.7761C41.2222 45.4905 39.8823 46.3477 39.0349 46.3477H37.9708C37.1038 46.3477 36.6702 45.9142 36.6702 45.0471C36.6702 43.4904 38.2368 41.5691 41.37 39.2832H42.8775C43.3307 39.2832 43.8234 39.5098 44.3554 39.9631C44.6707 39.2734 45.2422 38.6329 46.0698 38.0418ZM42.2272 40.3473C39.8231 42.4164 38.6211 44.0618 38.6211 45.2836C39.3699 45.0668 40.9956 43.5692 43.4982 40.7907C43.1238 40.7907 42.7002 40.6429 42.2272 40.3473ZM57.7903 35.2041H59.0909C59.5047 35.3618 59.7117 35.7953 59.7117 36.5047V36.889C59.7117 38.7216 58.3618 42.8499 55.6621 49.274H54.8345C54.6177 49.274 54.4108 49.0474 54.2138 48.5941C56.7558 42.3869 58.0268 38.6329 58.0268 37.3324V37.1254H57.7903C55.4848 41.3819 54.066 43.579 53.5339 43.717H52.2629C51.987 43.717 51.8491 43.5692 51.8491 43.2736C51.8491 42.6824 52.2826 41.2636 53.1497 39.0172V38.8398H52.9132C51.0609 42.446 49.849 44.3574 49.2775 44.5742H48.0065C47.7306 44.5742 47.5927 44.4362 47.5927 44.1604C47.5927 41.2439 48.1543 39.6773 49.2775 39.4606H49.514C49.8096 39.5 49.9574 39.6478 49.9574 39.9039V40.0813C49.9574 40.4163 49.8785 40.7119 49.7209 40.968V41.1454H49.9574C51.1003 38.4654 52.2925 37.1254 53.5339 37.1254H54.2138C54.6276 37.1254 54.8345 37.756 54.8345 39.0172H55.0414C55.6326 37.5196 56.5489 36.2485 57.7903 35.2041ZM79.9899 36.3274H80.8471C81.0442 36.3274 81.2511 36.5441 81.4679 36.9777V37.8349C81.4679 38.4457 80.6205 40.702 78.9258 44.6037C79.2805 44.6037 81.0541 43.0568 84.2464 39.9631H85.3105C85.5864 39.9828 85.7243 40.1109 85.7243 40.3473V40.5838C82.6502 44.2687 80.3841 46.1112 78.9258 46.1112H78.0982L77.0341 45.9043V44.8402C77.0341 44.2096 77.8716 42.0026 79.5466 38.2191H79.3397C75.8518 42.6332 73.9403 44.8402 73.6053 44.8402H72.0978C71.8417 44.8402 71.7136 44.7023 71.7136 44.4264V44.2195C71.7136 42.5839 72.6299 40.8104 74.4625 38.899H75.0832C75.3788 38.9187 75.5266 39.0467 75.5266 39.2832V39.7266L75.2901 40.17H75.5266C77.4381 37.6082 78.9258 36.3274 79.9899 36.3274ZM84.8529 37.0663H85.5328C85.7889 37.1057 85.917 37.2535 85.917 37.5097V37.9235C84.6559 41.2932 84.0253 43.1357 84.0253 43.451C84.2617 43.451 85.3948 42.2391 87.4245 39.8153L88.0452 39.431H88.2817L89.3458 39.6379V40.0517C89.3458 40.4064 89.1389 41.3326 88.7251 42.8302L89.1093 43.0076C89.464 43.0076 91.3164 42.0223 94.6663 40.0517C95.2181 40.2488 95.494 40.4656 95.494 40.702V40.8794C93.2869 42.8302 91.3065 43.8943 89.5527 44.0717H88.4886C87.4836 44.0717 86.9811 43.717 86.9811 43.0076C85.8579 44.1702 84.9416 44.7515 84.2322 44.7515H82.7247C82.3109 44.5939 82.104 44.1604 82.104 43.451C83.2666 39.1945 84.1829 37.0663 84.8529 37.0663ZM99.7362 27.046H100.386C100.662 27.1051 100.8 27.2529 100.8 27.4894C100.8 28.0806 100.16 29.8541 98.879 32.8099H149.572L150.636 33.0464V33.6671C150.636 34.1006 149.345 34.3174 146.764 34.3174H145.936L145.315 33.874H98.2583C98.2583 34.1105 92.7899 46.9586 81.8533 72.4183C82.1489 72.4183 82.2967 72.6252 82.2967 73.039C81.4099 75.0096 80.5527 75.9948 79.7251 75.9948C79.0157 75.916 78.661 75.7091 78.661 75.3741L96.3665 33.874H82.7105C82.4346 33.874 82.2967 33.7262 82.2967 33.4306C82.4543 33.0168 82.8879 32.8099 83.5973 32.8099H96.5439C96.7803 32.8099 97.7065 30.9674 99.3224 27.2825L99.7362 27.046ZM103.328 27.046H103.978C104.254 27.1051 104.392 27.2529 104.392 27.4894C104.392 28.0806 103.752 29.8541 102.471 32.8099H153.164L154.228 33.0464V33.6671C154.228 34.1006 152.937 34.3174 150.356 34.3174H149.528L148.907 33.874H101.85C101.85 34.1105 96.3819 46.9586 85.4453 72.4183C85.7408 72.4183 85.8886 72.6252 85.8886 73.039C85.0019 75.0096 84.1447 75.9948 83.317 75.9948C82.6076 75.916 82.2529 75.7091 82.2529 75.3741L99.9585 33.874H86.3025C86.0266 33.874 85.8886 33.7262 85.8886 33.4306C86.0463 33.0168 86.4798 32.8099 87.1892 32.8099H100.136C100.372 32.8099 101.298 30.9674 102.914 27.2825L103.328 27.046Z" fill="white"/>
</svg>
